<svg xmlns="http://www.w3.org/2000/svg" viewBox="0 14.550000190734863 53.349998474121094 36.04999923706055" data-asc="1" width="53.349998474121094" height="36.04999923706055"><defs/><g fill="#000000"><g transform="translate(0, 0)"><path d="M14.15 50.60Q11.43 50.60 8.90 49.49Q6.38 48.38 4.36 46.11Q2.35 43.85 1.18 40.35Q0 36.85 0 32.10Q0 26.40 1.99 22.49Q3.98 18.57 7.31 16.56Q10.65 14.55 14.70 14.55Q17.45 14.55 19.19 15.07Q20.93 15.60 21.96 16.32Q23 17.05 23.65 17.65L20.85 22.90Q19.77 21.72 18.63 21.01Q17.48 20.30 14.95 20.30Q12.40 20.30 10.61 21.77Q8.83 23.25 7.89 25.84Q6.95 28.42 6.95 31.75Q6.95 38.27 9.14 41.59Q11.33 44.90 14.40 44.90Q16.77 44.90 18.45 44.23Q20.13 43.55 20.95 42.70L23.70 47.65Q23 48.23 21.84 48.91Q20.68 49.60 18.81 50.10Q16.95 50.60 14.15 50.60ZM28.55 50L28.55 15.15L37.55 15.15Q45.13 15.15 49.24 19.39Q53.35 23.63 53.35 32.15Q53.35 37.60 51.53 41.61Q49.70 45.63 46.16 47.81Q42.63 50 37.50 50L28.55 50M37.35 20.15L35 20.15L35 44.50L37.35 44.50Q40.10 44.50 41.92 43.46Q43.75 42.42 44.84 40.69Q45.92 38.95 46.39 36.76Q46.85 34.58 46.85 32.30Q46.85 29.15 45.98 26.38Q45.10 23.60 43.03 21.88Q40.95 20.15 37.35 20.15Z"/></g></g></svg>